<?xml version="1.0" encoding="UTF-8"?>
<svg version="1.1" xmlns="http://www.w3.org/2000/svg" width="32" height="32">
<path d="M0 0 C8.91 0 17.82 0 27 0 C28.2375 6.001875 28.2375 6.001875 29.5 12.125 C29.89155273 14.00082764 29.89155273 14.00082764 30.29101562 15.91455078 C30.49404297 16.91470215 30.69707031 17.91485352 30.90625 18.9453125 C31.22045898 20.46922607 31.22045898 20.46922607 31.54101562 22.02392578 C32.00988982 25.06412599 32.0800787 27.92898194 32 31 C21.98707052 32.09945892 12.05598201 32.10055982 2 32 C-0.71474355 21.74000837 -0.10748663 10.53369 0 0 Z M20 12 C18.18177201 13.90749396 18.18177201 13.90749396 16.375 16.3125 C15.42753906 17.51326172 15.42753906 17.51326172 14.4609375 18.73828125 C12.72870529 20.97124426 12.72870529 20.97124426 13 24 C18.61 24 24.22 24 30 24 C26.96187382 17.30896139 26.96187382 17.30896139 22 12 C21.34 12 20.68 12 20 12 Z " fill="#177F0D" transform="translate(0,0)"/>
</svg>
